<svg width="30" height="30" viewBox="0 0 30 30" fill="none" xmlns="http://www.w3.org/2000/svg">
<path d="M15.0067 7.36318C10.7833 7.36318 7.37666 10.7698 7.37666 14.9933C7.37666 19.2167 10.7833 22.6233 15.0067 22.6233C19.2302 22.6233 22.6368 19.2167 22.6368 14.9933C22.6368 10.7698 19.2302 7.36318 15.0067 7.36318ZM15.0067 19.9538C12.2774 19.9538 10.0462 17.7292 10.0462 14.9933C10.0462 12.2573 12.2708 10.0327 15.0067 10.0327C17.7427 10.0327 19.9673 12.2573 19.9673 14.9933C19.9673 17.7292 17.736 19.9538 15.0067 19.9538ZM24.7286 7.05107C24.7286 8.04053 23.9317 8.83076 22.9489 8.83076C21.9595 8.83076 21.1692 8.03389 21.1692 7.05107C21.1692 6.06826 21.9661 5.27139 22.9489 5.27139C23.9317 5.27139 24.7286 6.06826 24.7286 7.05107ZM29.7821 8.85732C29.6692 6.47334 29.1247 4.36162 27.3782 2.62178C25.6384 0.881933 23.5267 0.337402 21.1427 0.217871C18.6856 0.078418 11.3212 0.078418 8.86416 0.217871C6.48682 0.330762 4.3751 0.875293 2.62861 2.61514C0.882129 4.35498 0.344238 6.4667 0.224707 8.85068C0.0852539 11.3077 0.0852539 18.6722 0.224707 21.1292C0.337598 23.5132 0.882129 25.6249 2.62861 27.3647C4.3751 29.1046 6.48018 29.6491 8.86416 29.7687C11.3212 29.9081 18.6856 29.9081 21.1427 29.7687C23.5267 29.6558 25.6384 29.1112 27.3782 27.3647C29.1181 25.6249 29.6626 23.5132 29.7821 21.1292C29.9216 18.6722 29.9216 11.3144 29.7821 8.85732ZM26.6079 23.7655C26.0899 25.0671 25.0872 26.0698 23.779 26.5944C21.82 27.3714 17.1716 27.1921 15.0067 27.1921C12.8419 27.1921 8.18682 27.3647 6.23447 26.5944C4.93291 26.0765 3.93018 25.0737 3.40557 23.7655C2.62861 21.8065 2.80791 17.1581 2.80791 14.9933C2.80791 12.8284 2.63525 8.17334 3.40557 6.221C3.92354 4.91943 4.92627 3.9167 6.23447 3.39209C8.19346 2.61514 12.8419 2.79443 15.0067 2.79443C17.1716 2.79443 21.8267 2.62178 23.779 3.39209C25.0806 3.91006 26.0833 4.91279 26.6079 6.221C27.3849 8.17998 27.2056 12.8284 27.2056 14.9933C27.2056 17.1581 27.3849 21.8132 26.6079 23.7655Z" fill="#03344F"/>
</svg>
