<svg width="34" height="34" viewBox="0 0 34 34" fill="none" xmlns="http://www.w3.org/2000/svg">
<path d="M17 0.53125C7.90234 0.53125 0.53125 7.90234 0.53125 17C0.53125 26.0977 7.90234 33.4688 17 33.4688C26.0977 33.4688 33.4688 26.0977 33.4688 17C33.4688 7.90234 26.0977 0.53125 17 0.53125ZM28.2559 23.0363C28.0234 23.5742 27.0539 23.966 25.2809 24.2449C25.1879 24.3711 25.1148 24.8957 24.9953 25.3008C24.9223 25.5465 24.7496 25.6926 24.4574 25.6926H24.4441C24.0324 25.6926 23.5941 25.5 22.7309 25.5C21.5621 25.5 21.157 25.7656 20.2473 26.4098C19.2844 27.0938 18.3613 27.6781 16.9801 27.6184C15.5855 27.7246 14.4168 26.8746 13.7594 26.4098C12.843 25.7656 12.4445 25.5 11.2758 25.5C10.4457 25.5 9.92109 25.7059 9.5625 25.7059C9.20391 25.7059 9.06445 25.4867 9.01133 25.3074C8.8918 24.9023 8.81875 24.3711 8.72578 24.2449C7.80938 24.1055 5.75078 23.7469 5.7043 22.8238C5.69102 22.5848 5.85703 22.3723 6.09609 22.3324C9.1707 21.8277 10.552 18.6734 10.6117 18.5406C10.6117 18.534 10.6184 18.5273 10.625 18.5207C10.791 18.1887 10.8242 17.9098 10.7313 17.6906C10.5055 17.166 9.54258 16.9801 9.1375 16.8141C8.08828 16.4023 7.94219 15.9242 8.00859 15.5988C8.11484 15.0344 8.96484 14.6824 9.46289 14.9148C9.85469 15.1008 10.2066 15.1938 10.5055 15.1938C10.7246 15.1938 10.8707 15.1406 10.9438 15.1008C10.8508 13.5137 10.6316 11.2492 11.1961 9.98086C12.6902 6.64063 15.8512 6.375 16.7809 6.375C16.8207 6.375 17.1859 6.36836 17.2258 6.36836C19.5301 6.36836 21.7414 7.55039 22.8238 9.97422C23.3883 11.2426 23.1691 13.5004 23.0762 15.0941C23.1492 15.134 23.2688 15.1805 23.4547 15.1871C23.7402 15.1738 24.0656 15.0809 24.4309 14.9082C24.6965 14.782 25.0684 14.802 25.334 14.9082C25.7523 15.0609 26.018 15.3598 26.0246 15.6984C26.0312 16.1301 25.6461 16.502 24.8824 16.8008C24.7895 16.8406 24.6766 16.8738 24.557 16.9137C24.1254 17.0531 23.468 17.259 23.2953 17.6773C23.2023 17.8965 23.2422 18.1754 23.4016 18.5074C23.4082 18.5141 23.4082 18.5207 23.4148 18.5273C23.4746 18.6602 24.8559 21.8145 27.9305 22.3191C28.1961 22.3855 28.402 22.6844 28.2559 23.0363Z" fill="#03344F"/>
</svg>
