<svg width="84" height="50" viewBox="0 0 84 50" fill="none" xmlns="http://www.w3.org/2000/svg">
<path d="M3.038 19.9714H2.22852C0.997617 19.9714 0 20.9694 0 22.2C0 23.4306 0.997617 24.4285 2.22852 24.4285H3.038C4.26828 24.4285 5.26657 23.4306 5.26657 22.2C5.26657 20.9694 4.26859 19.9714 3.038 19.9714Z" fill="#054C73"/>
<path d="M21.5707 24.4285C22.8013 24.4285 23.7995 23.4306 23.7995 22.2C23.7995 20.9694 22.8013 19.9714 21.5707 19.9714H9.20313C7.97286 19.9714 6.97461 20.9694 6.97461 22.2C6.97461 23.4306 7.97286 24.4285 9.20313 24.4285H21.5707Z" fill="#054C73"/>
<path d="M10.5781 16.1558H11.3784C12.6096 16.1558 13.6069 15.1579 13.6069 13.9276C13.6069 12.6964 12.6096 11.6987 11.3784 11.6987H10.5781C9.34723 11.6987 8.34961 12.6967 8.34961 13.9276C8.34961 15.1579 9.34723 16.1558 10.5781 16.1558Z" fill="#054C73"/>
<path d="M24.0084 11.6987H17.5443C16.3131 11.6987 15.3154 12.6967 15.3154 13.9276C15.3154 15.1582 16.3131 16.1558 17.5443 16.1558H24.0084C25.2393 16.1558 26.2369 15.1579 26.2369 13.9276C26.2369 12.6964 25.2393 11.6987 24.0084 11.6987Z" fill="#054C73"/>
<path d="M11.3883 28.2451H10.5781C9.34723 28.2451 8.34961 29.2431 8.34961 30.474C8.34961 31.7046 9.34723 32.7022 10.5781 32.7022H11.3883C12.6192 32.7022 13.6168 31.7042 13.6168 30.474C13.6168 29.2431 12.6192 28.2451 11.3883 28.2451Z" fill="#054C73"/>
<path d="M24.0083 28.2451H17.5538C16.3229 28.2451 15.3252 29.2431 15.3252 30.474C15.3252 31.7046 16.3229 32.7022 17.5538 32.7022H24.0083C25.2392 32.7022 26.2368 31.7042 26.2368 30.474C26.2368 29.2431 25.2392 28.2451 24.0083 28.2451Z" fill="#054C73"/>
<path d="M27.1697 46.0436C25.0352 46.0436 23.2995 44.3078 23.2995 42.1731C23.2995 40.0387 25.0352 38.3027 27.1697 38.3027C29.3042 38.3027 31.0398 40.039 31.0398 42.173L27.1697 46.0436ZM27.1697 46.0436C29.304 46.0436 31.0401 44.3079 31.0398 42.1731L27.1697 46.0436ZM68.9064 46.0436C66.772 46.0436 65.0363 44.3078 65.0363 42.1731C65.0363 40.0387 66.7723 38.3027 68.9064 38.3027C71.0415 38.3027 72.7771 40.039 72.7772 42.173L68.9064 46.0436ZM68.9064 46.0436C71.0413 46.0436 72.7775 44.308 72.7772 42.1731L68.9064 46.0436ZM76.4088 44.4013H81.6919C82.9228 44.4013 83.9204 43.4037 83.9204 42.1728V25.6266C83.9211 25.0707 83.7122 24.5339 83.3369 24.123L76.4088 44.4013ZM72.2718 12.7615L82.9677 24.4602C83.2592 24.7793 83.4209 25.1958 83.4204 25.626V25.6266V42.1728C83.4204 43.1276 82.6467 43.9013 81.6919 43.9013H76.4088H76.0359L75.9296 44.2587C75.0284 47.2864 72.2206 49.5 68.9061 49.5C65.5929 49.5 62.7844 47.2864 61.8829 44.2586L61.7765 43.9013H61.4037H56.1209H34.6721H34.2992L34.1929 44.2586C33.2913 47.2864 30.4835 49.5 27.1697 49.5C23.8558 49.5 21.0474 47.2863 20.1468 44.2588L20.0405 43.9013H19.6676H15.5083C14.5535 43.9013 13.7798 43.1278 13.7798 42.1728C13.7798 41.2184 14.5535 40.4446 15.5083 40.4446H19.6676H20.0405L20.1469 40.0871C21.0474 37.0589 23.8558 34.8456 27.1697 34.8456C30.4835 34.8456 33.2913 37.0589 34.1928 40.0872L34.2992 40.4446H34.6721H53.8924H54.3924V39.9446V4.45707V3.95707H53.8924H15.5083C14.5536 3.95707 13.7798 3.18303 13.7798 2.22853C13.7798 1.27404 14.5536 0.5 15.5083 0.5H56.1212C57.076 0.5 57.8498 1.27377 57.8498 2.22853V11.6989V12.1989H58.3498H70.9957C71.4813 12.1989 71.9446 12.4031 72.2715 12.7612L72.2718 12.7615ZM75.9302 40.0875L76.0366 40.4449L76.4095 40.4449L79.4641 40.4446L79.964 40.4445V39.9446V27.8554V27.3554H79.464H64.012C63.0579 27.3554 62.2841 26.582 62.2841 25.6269C62.2841 24.6723 63.058 23.8984 64.012 23.8984H76.6354H77.77L77.0044 23.061L70.3833 15.8189L70.2347 15.6562H70.0143H58.3501H57.8501V16.1562V39.9449V40.4449H58.3501H61.4043H61.7772L61.8836 40.0875C62.7851 37.0592 65.5932 34.8459 68.9067 34.8459C72.2212 34.8459 75.029 37.0592 75.9302 40.0875Z" fill="#054C73" stroke="#054C73"/>
</svg>
