<svg width="34" height="32" viewBox="0 0 34 32" fill="none" xmlns="http://www.w3.org/2000/svg">
<path d="M16.5854 0C7.51963 0 0.141719 7.1136 0.138522 15.856C0.136391 18.6517 0.895068 21.3803 2.33357 23.7835L0 32L8.71945 29.7952C11.1449 31.0653 13.8418 31.7277 16.579 31.7259H16.5854C25.6511 31.7259 33.0291 24.6112 33.0323 15.8688C33.0344 11.6341 31.3252 7.648 28.2191 4.65173C25.1141 1.6544 20.9851 0.00106667 16.5854 0ZM16.5854 29.0475H16.5801C14.1272 29.0475 11.7211 28.4117 9.62198 27.2107L9.12117 26.9248L3.94895 28.2325L5.32991 23.3685L5.00492 22.8704C3.63984 20.7863 2.91316 18.3482 2.9143 15.856C2.91749 8.5888 9.05084 2.6784 16.5907 2.6784C20.2413 2.67947 23.6735 4.05227 26.2553 6.54293C28.8372 9.0336 30.2575 12.3456 30.2554 15.8677C30.2522 23.1349 24.121 29.0475 16.5854 29.0475ZM24.0837 19.1755C23.6724 18.9781 21.6521 18.0192 21.2749 17.8859C20.8988 17.7547 20.6249 17.6864 20.3511 18.0832C20.0783 18.48 19.2898 19.3728 19.0511 19.6363C18.8103 19.9008 18.5705 19.9328 18.1592 19.7355C17.7479 19.5371 16.4234 19.1189 14.8549 17.7685C13.6327 16.7189 12.808 15.4219 12.5682 15.024C12.3285 14.6283 12.5427 14.4139 12.7483 14.2165C12.9327 14.0405 13.1596 13.7547 13.3642 13.5232C13.5688 13.2917 13.637 13.1264 13.7755 12.8619C13.9119 12.5984 13.8437 12.3659 13.7404 12.1685C13.637 11.9691 12.8165 10.0192 12.4723 9.22667C12.1399 8.4544 11.801 8.55787 11.5485 8.54507C11.3088 8.5344 11.036 8.5312 10.76 8.5312C10.4883 8.5312 10.0418 8.6304 9.6646 9.0272C9.28846 9.424 8.2261 10.3819 8.2261 12.3317C8.2261 14.2827 9.6987 16.1664 9.90435 16.4309C10.11 16.6944 12.8027 20.6976 16.9253 22.4149C17.9056 22.8213 18.6707 23.0656 19.2685 23.2491C20.253 23.5509 21.1492 23.5072 21.8567 23.4059C22.6452 23.2917 24.2883 22.448 24.6293 21.5232C24.9724 20.5984 24.9724 19.8048 24.8701 19.6395C24.7699 19.4741 24.495 19.3749 24.0837 19.1755Z" fill="#03344F"/>
</svg>
